<?xml version="1.0" standalone="no"?><!DOCTYPE svg PUBLIC "-//W3C//DTD SVG 1.1//EN" "http://www.w3.org/Graphics/SVG/1.1/DTD/svg11.dtd"><svg t="1672823936760" class="icon" viewBox="0 0 1024 1024" version="1.1" xmlns="http://www.w3.org/2000/svg" p-id="18151" xmlns:xlink="http://www.w3.org/1999/xlink" width="300" height="300"><path d="M810.666667 98.773333H256A99.626667 99.626667 0 0 0 162.773333 192v46.506667a68.906667 68.906667 0 0 0-42.666666 60.16 68.906667 68.906667 0 0 0 42.666666 60.16v93.226666a68.906667 68.906667 0 0 0-42.666666 60.16 68.906667 68.906667 0 0 0 42.666666 60.16v93.226667a68.906667 68.906667 0 0 0-42.666666 60.16 68.906667 68.906667 0 0 0 42.666666 60.16V832c0 47.146667 46.293333 77.226667 93.44 77.226667H810.666667A72.32 72.32 0 0 0 888.106667 832V192c0-47.146667-30.293333-93.226667-77.44-93.226667z m-149.333334 362.666667a21.333333 21.333333 0 0 1 0 42.666667h-114.56v64H661.333333a21.333333 21.333333 0 0 1 0 42.666666h-114.56V682.666667a21.333333 21.333333 0 0 1-42.666666 0v-71.893334H405.333333a21.333333 21.333333 0 0 1 0-42.666666h98.773334v-64H405.333333a21.333333 21.333333 0 0 1 0-42.666667h90.88L384 352.426667a16.853333 16.853333 0 0 1 0-26.24 21.333333 21.333333 0 0 1 30.08 0l112.853333 112.64 113.066667-113.706667a21.333333 21.333333 0 0 1 30.08 0 18.986667 18.986667 0 0 1 0 28.16l-112.853333 109.013333H661.333333z" p-id="18152"></path></svg>