<?xml version="1.0" standalone="no"?><!DOCTYPE svg PUBLIC "-//W3C//DTD SVG 1.1//EN" "http://www.w3.org/Graphics/SVG/1.1/DTD/svg11.dtd"><svg t="1672823601545" class="icon" viewBox="0 0 1024 1024" version="1.1" xmlns="http://www.w3.org/2000/svg" p-id="8729" xmlns:xlink="http://www.w3.org/1999/xlink" width="300" height="300"><path d="M783.243636 696.389818c17.268364 0 31.301818 13.498182 31.301819 30.138182s-14.033455 30.138182-31.301819 30.138182h-77.032727v51.013818C706.187636 824.32 692.154182 837.818182 674.909091 837.818182s-31.301818-13.498182-31.301818-30.138182v-51.013818h-77.032728c-17.291636 0-31.301818-13.498182-31.301818-30.138182s14.010182-30.138182 31.278546-30.138182h77.056V640.698182h-77.032728c-17.291636 0-31.301818-13.498182-31.301818-30.138182s14.010182-30.138182 31.278546-30.138182h39.656727l-58.763636-65.047273a29.370182 29.370182 0 0 1 3.095272-42.519272 32.116364 32.116364 0 0 1 44.148364 2.932363L674.909091 564.642909l80.197818-88.832a32.116364 32.116364 0 0 1 44.148364-2.932364 29.323636 29.323636 0 0 1 3.095272 42.519273l-58.740363 65.047273h39.633454c17.268364 0 31.301818 13.498182 31.301819 30.138182s-14.033455 30.138182-31.301819 30.138182h-77.032727v55.668363h77.032727zM674.909091 325.818182c-179.968 0-325.818182 145.873455-325.818182 325.818182 0 179.968 145.850182 325.818182 325.818182 325.818181 179.944727 0 325.818182-145.850182 325.818182-325.818181 0-179.944727-145.873455-325.818182-325.818182-325.818182zM367.080727 861.090909H93.090909v-139.636364h162.909091a34.909091 34.909091 0 0 0 0-69.818181H93.090909v-128h209.454546a34.909091 34.909091 0 0 0 0-69.818182H93.090909V349.090909h365.288727A369.710545 369.710545 0 0 1 628.363636 282.507636v-189.44a46.545455 46.545455 0 0 0-46.545454-46.545454H69.818182a46.545455 46.545455 0 0 0-46.545455 46.545454v791.272728a46.545455 46.545455 0 0 0 46.545455 46.545454h359.354182a374.062545 374.062545 0 0 1-62.091637-69.818182z" p-id="8730"></path></svg>