<svg xmlns="http://www.w3.org/2000/svg" width="18" height="18" viewBox="0 0 18 18">
  <g id="组_8544" data-name="组 8544" transform="translate(-1772 -87)">
    <rect id="矩形_2365" data-name="矩形 2365" width="18" height="18" transform="translate(1772 87)" fill="#fff" opacity="0"/>
    <path id="退出_2_" data-name="退出 (2)" d="M8.815,68.963h1.7v2.611a2.082,2.082,0,0,1-.137.79,1.538,1.538,0,0,1-.364.55,1.443,1.443,0,0,1-.529.316,1.988,1.988,0,0,1-.646.1H2.769a1.677,1.677,0,0,1-.646-.131,1.749,1.749,0,0,1-.557-.364,1.9,1.9,0,0,1-.392-.55,1.6,1.6,0,0,1-.151-.7V62.106a1.347,1.347,0,0,1,.158-.632,2.018,2.018,0,0,1,.405-.536,2.137,2.137,0,0,1,.55-.378,1.393,1.393,0,0,1,.6-.144H8.774a1.485,1.485,0,0,1,.673.158,2.123,2.123,0,0,1,.556.4,1.839,1.839,0,0,1,.378.543,1.422,1.422,0,0,1,.137.591v2.528h-1.7l.014-2.624H2.755l-.014,9.577H8.815Zm5.908-2.57q.508.412.027.811a7.288,7.288,0,0,0-.6.508q-.323.3-.673.625l-.694.639q-.344.316-.632.55a.948.948,0,0,1-.543.247q-.227,0-.227-.33a2.322,2.322,0,0,0,.007-.481q-.021-.289-.021-.495,0-.234-.165-.289a1.268,1.268,0,0,0-.4-.055H9.42q-.467,0-.982-.007t-.982-.007h-1.4a1.549,1.549,0,0,1-.24-.021A.578.578,0,0,1,5.579,68a.487.487,0,0,1-.165-.192.706.706,0,0,1-.062-.316q0-.261-.007-.618t.007-.632a.609.609,0,0,1,.179-.508.9.9,0,0,1,.577-.124h1.25q.44,0,.941.007t.955.007H10.6a1.874,1.874,0,0,0,.584-.055.293.293,0,0,0,.24-.3q0-.192.014-.433t.014-.433q0-.316.172-.4t.433.124l.611.515q.35.3.708.6l.708.611q.35.3.639.536Z" transform="translate(1772.976 29.245)" fill="currentColor"/>
  </g>
</svg>
