<?xml version="1.0" standalone="no"?><!DOCTYPE svg PUBLIC "-//W3C//DTD SVG 1.1//EN" "http://www.w3.org/Graphics/SVG/1.1/DTD/svg11.dtd"><svg t="1672823454814" class="icon" viewBox="0 0 1024 1024" version="1.1" xmlns="http://www.w3.org/2000/svg" p-id="6056" xmlns:xlink="http://www.w3.org/1999/xlink" width="300" height="300"><path d="M486.4 0h435.2c28.8 0 51.2 22.4 51.2 51.2v544c-6.4-3.2-16 0-19.2 6.4l-16 16c-9.6 9.6-22.4 9.6-32 6.4l-38.4-16c-12.8-3.2-19.2-16-19.2-25.6v-25.6c0-12.8-9.6-19.2-19.2-19.2h-41.6c-12.8 0-19.2 9.6-19.2 19.2v25.6c0 12.8-9.6 22.4-19.2 25.6l-35.2 12.8c-9.6 6.4-22.4 3.2-32-6.4l-19.2-16c-9.6-9.6-22.4-9.6-28.8 0l-28.8 28.8c-9.6 9.6-9.6 22.4 0 28.8l16 16c9.6 9.6 9.6 22.4 6.4 32l-19.2 41.6c-3.2 12.8-16 19.2-25.6 19.2h-25.6c-12.8 0-19.2 9.6-19.2 19.2v41.6c0 12.8 9.6 19.2 19.2 19.2h25.6c12.8 0 22.4 9.6 25.6 19.2l12.8 35.2c6.4 9.6 3.2 22.4-6.4 32l-16 16c-9.6 9.6-9.6 22.4 0 28.8l28.8 28.8c6.4 6.4 22.4 6.4 28.8 0l16-16c9.6-9.6 22.4-9.6 32-3.2l35.2 12.8c9.6 3.2 16 12.8 19.2 22.4H51.2C22.4 1024 0 1001.6 0 972.8V51.2C0 22.4 22.4 0 51.2 0h435.2zM128 537.6c0 12.8 12.8 25.6 25.6 25.6H384c12.8 0 25.6-12.8 25.6-25.6s-12.8-25.6-25.6-25.6H153.6c-16 0-25.6 9.6-25.6 25.6z m0 204.8c0 12.8 9.6 25.6 25.6 25.6h179.2c12.8 0 25.6-12.8 25.6-25.6s-12.8-25.6-25.6-25.6H153.6c-16 0-25.6 9.6-25.6 25.6zM128 307.2c0 12.8 12.8 25.6 25.6 25.6h332.8c12.8 0 25.6-12.8 22.4-28.8 0-12.8-9.6-22.4-22.4-22.4H150.4c-12.8 0-22.4 12.8-22.4 25.6z" p-id="6057"></path><path d="M1008 787.2c9.6 0 16 6.4 16 16v32c0 9.6-6.4 16-16 16h-19.2c-9.6 0-16 6.4-19.2 16l-9.6 25.6c-3.2 9.6-3.2 19.2 3.2 25.6l12.8 12.8c6.4 6.4 6.4 16 0 22.4l-22.4 22.4c-6.4 6.4-16 6.4-22.4 0l-16-16c-6.4-6.4-16-6.4-25.6-3.2l-25.6 9.6c-9.6 3.2-16 12.8-16 19.2v19.2c0 9.6-6.4 16-16 16h-32c-9.6 0-16-6.4-16-16v-19.2c0-9.6-6.4-16-16-19.2l-25.6-9.6c-9.6-3.2-19.2-3.2-25.6 3.2l-12.8 12.8c-6.4 6.4-16 6.4-22.4 0l-22.4-22.4c-6.4-6.4-6.4-16 0-22.4l12.8-12.8c6.4-6.4 6.4-16 3.2-25.6l-6.4-25.6c-3.2-9.6-12.8-16-19.2-16h-19.2c-9.6 0-16-6.4-16-16v-32c0-9.6 6.4-16 16-16h19.2c9.6 0 16-6.4 19.2-16l9.6-25.6c3.2-9.6 3.2-19.2-3.2-25.6l-12.8-12.8c-6.4-6.4-6.4-16 0-22.4l22.4-22.4c6.4-6.4 16-6.4 22.4 0l12.8 12.8c6.4 6.4 16 6.4 25.6 3.2l25.6-9.6c9.6-3.2 16-9.6 16-19.2v-19.2c0-9.6 6.4-16 16-16h32c9.6 0 16 6.4 16 16v19.2c0 9.6 6.4 19.2 16 19.2l25.6 9.6c6.4 3.2 19.2 3.2 25.6-3.2l12.8-12.8c6.4-6.4 16-6.4 22.4 0l22.4 22.4c6.4 6.4 6.4 16 0 22.4l-16 16c-6.4 6.4-6.4 16-3.2 25.6l9.6 25.6c3.2 9.6 12.8 16 19.2 16h22.4zM819.2 896c44.8 0 80-35.2 80-80S864 736 819.2 736s-80 35.2-80 80 35.2 80 80 80z" p-id="6058"></path></svg>