<svg xmlns="http://www.w3.org/2000/svg" width="18" height="18" viewBox="0 0 18 18">
  <g id="组_6921" data-name="组 6921" transform="translate(-24 -113)">
    <rect id="矩形_4" data-name="矩形 4" width="18" height="18" transform="translate(24 113)" fill="none"/>
    <path id="掌上充值" d="M161.945,102.456h-9.272a8.864,8.864,0,0,0-2.873,6.174c0,4.226,3.359,5.612,7.5,5.612s7.5-1.386,7.5-5.612C164.8,106.25,161.945,102.456,161.945,102.456Zm-1.429,7.145h-2.5v2.142h-1.429V109.6h-2.5v-1.072h2.5v-1.072h-2.142v-1.072h.715v-2.142h1.429v2.142h1.429v-2.142h1.429v2.142h.715v1.072h-2.146v1.072h2.5Zm1.016-7.857c.886-1.675.894-3.369-.014-3.856-.684-.366-1.7.056-2.586.971-.343-1.051-.967-1.758-1.683-1.758s-1.345.713-1.688,1.77c-.888-.909-1.9-1.326-2.578-.963-.9.483-.9,2.169-.014,3.836Z" transform="translate(-124.301 16.361)" fill="currentColor"/>
  </g>
</svg>
