<svg id="图层_1" data-name="图层 1" xmlns="http://www.w3.org/2000/svg" viewBox="0 0 200.12 200.12"><defs><style>.cls-1{fill:#2e9473;}.cls-2{fill:#fff;}</style></defs><title>T</title><circle class="cls-1" cx="100.06" cy="100.06" r="100.06"/><path class="cls-2" d="M160.29,98.14c0-6.56-20.23-12-47.26-13.39v-14h34.14V47.61H54.45v23.1H88.58v14C60.82,85.9,39.84,91.46,39.84,98.14s21,12.24,48.74,13.47v46.91H113v-47C140.06,110.18,160.29,104.7,160.29,98.14Zm-59.52,9.58c-30.19,0-54.67-4.83-54.67-10.79,0-5.13,18.16-9.42,42.48-10.51v16.79H113V86.42c24.29,1.1,42.41,5.39,42.41,10.51C155.44,102.89,131,107.72,100.77,107.72Z"/></svg>