<svg xmlns="http://www.w3.org/2000/svg" width="18" height="18" viewBox="0 0 18 18"><defs><style>.a,.c{fill:#fff;}.a{opacity:0;}.b{fill:#2a47ab;}</style></defs><g transform="translate(-1772 -88)"><rect class="a" width="18" height="18" transform="translate(1772 88)"/><rect class="b" width="14" height="11" rx="1" transform="translate(1774 92)"/><path class="c" d="M80.558,75.791a.53.53,0,1,0,0,1.059h3.178a.53.53,0,0,0,0-1.059Zm0,2.118a.53.53,0,1,0,0,1.059h3.178a.53.53,0,0,0,0-1.059Zm1.059,2.118a.53.53,0,1,0,0,1.059h2.118a.53.53,0,0,0,0-1.059Zm-4.441-1.793a1.222,1.222,0,1,0-1.222-1.222,1.222,1.222,0,0,0,1.222,1.222Zm.867.158a1.633,1.633,0,0,1-1.733,0,2.445,2.445,0,0,0-1.578,2.286.408.408,0,0,0,.408.408h4.074a.408.408,0,0,0,.407-.408,2.445,2.445,0,0,0-1.578-2.286Z" transform="translate(1701.268 19.209)"/></g></svg>